<?xml version="1.0" encoding="UTF-8" standalone="no"?>
<svg
   width="48"
   height="48"
   version="1"
   id="svg18"
   sodipodi:docname="audio-volume-muted.svg"
   inkscape:version="1.2.1 (9c6d41e410, 2022-07-14, custom)"
   xmlns:inkscape="http://www.inkscape.org/namespaces/inkscape"
   xmlns:sodipodi="http://sodipodi.sourceforge.net/DTD/sodipodi-0.dtd"
   xmlns="http://www.w3.org/2000/svg"
   xmlns:svg="http://www.w3.org/2000/svg">
  <defs
     id="defs22" />
  <sodipodi:namedview
     id="namedview20"
     pagecolor="#ffffff"
     bordercolor="#000000"
     borderopacity="0.25"
     inkscape:showpageshadow="2"
     inkscape:pageopacity="0.0"
     inkscape:pagecheckerboard="0"
     inkscape:deskcolor="#d1d1d1"
     showgrid="false"
     inkscape:zoom="20.645833"
     inkscape:cx="23.975782"
     inkscape:cy="24.072654"
     inkscape:window-width="3432"
     inkscape:window-height="1366"
     inkscape:window-x="1924"
     inkscape:window-y="310"
     inkscape:window-maximized="1"
     inkscape:current-layer="svg18" />
  <path
     fill="#e4e4e4"
     d="m4 14v20h9.0912l10.909 10v-40l-10.909 10z"
     id="path2" />
  <path
     opacity=".2"
     d="m4 34v1h9.0918l10.908 10v-1l-10.908-10z"
     id="path4" />
  <path
     fill="#fff"
     opacity=".2"
     d="m24 4-10.908 10h-9.092v1h9.092l10.908-10z"
     id="path6" />
  <circle
     fill="#db3c30"
     cx="28"
     cy="36"
     id="circle8"
     r="10"
     style="fill:#f38ba8;fill-opacity:1" />
  <path
     opacity=".2"
     d="m37.979 36.414a10 10 0 0 1 -9.979 9.586 10 10 0 0 1 -9.979 -9.414 10 10 0 0 0 -0.021 0.414 10 10 0 0 0 10 10 10 10 0 0 0 10 -10 10 10 0 0 0 -0.021 -0.586z"
     id="path10" />
  <g
     fill="#fff"
     transform="matrix(.70711 -.70711 .70711 .70711 -21.497 34.846)"
     id="g16"
     style="fill:#ffffff;fill-opacity:1">
    <rect
       width="12"
       height="2"
       x="28"
       y="35"
       id="rect12"
       style="fill:#ffffff;fill-opacity:1" />
    <rect
       width="12"
       height="2"
       x="-42"
       y="33"
       transform="rotate(-90)"
       id="rect14"
       style="fill:#ffffff;fill-opacity:1" />
  </g>
</svg>
