<?xml version="1.0" encoding="UTF-8" standalone="no"?>
<svg
   width="60"
   height="60"
   fill="none"
   version="1.1"
   viewBox="0 0 60 60"
   id="svg17"
   sodipodi:docname="lock_blur.svg"
   inkscape:version="1.2.1 (9c6d41e410, 2022-07-14, custom)"
   xmlns:inkscape="http://www.inkscape.org/namespaces/inkscape"
   xmlns:sodipodi="http://sodipodi.sourceforge.net/DTD/sodipodi-0.dtd"
   xmlns:xlink="http://www.w3.org/1999/xlink"
   xmlns="http://www.w3.org/2000/svg"
   xmlns:svg="http://www.w3.org/2000/svg">
  <sodipodi:namedview
     id="namedview19"
     pagecolor="#ffffff"
     bordercolor="#000000"
     borderopacity="0.25"
     inkscape:showpageshadow="2"
     inkscape:pageopacity="0.0"
     inkscape:pagecheckerboard="0"
     inkscape:deskcolor="#d1d1d1"
     showgrid="false"
     inkscape:zoom="16.516667"
     inkscape:cx="28.849647"
     inkscape:cy="29.969728"
     inkscape:window-width="3430"
     inkscape:window-height="1368"
     inkscape:window-x="1924"
     inkscape:window-y="66"
     inkscape:window-maximized="1"
     inkscape:current-layer="svg17" />
  <path
     d="m 29.588,2.6472 c -7.6348,0 -13.824,6.0172 -13.824,13.44 v 11.52 c 0,1.0604 -0.85962,1.92 -1.92,1.92 H 8.468 c -1.0604,0 -1.92,0.85962 -1.92,1.92 v 23.04 c 0,1.0602 0.85962,1.92 1.92,1.92 h 42.24 c 1.0602,0 1.92,-0.85978 1.92,-1.92 v -23.04 c 0,-1.0604 -0.85978,-1.92 -1.92,-1.92 h -5.376 c -1.0602,0 -1.92,-0.85962 -1.92,-1.92 v -11.52 c 0,-7.4228 -6.1892,-13.44 -13.824,-13.44 z m 0,4.48 c 5.0898,0 9.216,4.0115 9.216,8.96 v 11.52 c 0,1.0604 -0.85978,1.92 -1.92,1.92 H 22.292 c -1.0604,0 -1.92,-0.85962 -1.92,-1.92 v -11.52 c 0,-4.9485 4.1262,-8.96 9.216,-8.96 z"
     fill="url(#paint0_linear)"
     stroke-width="3.84"
     id="path2"
     style="display:inline;fill:url(#linearGradient395)" />
  <path
     d="m 29.588,2.6472 c -7.6348,0 -13.824,6.0172 -13.824,13.44 v 11.52 c 0,1.0604 -0.85962,1.92 -1.92,1.92 H 8.468 c -1.0604,0 -1.92,0.85962 -1.92,1.92 v 23.04 c 0,1.0602 0.85962,1.92 1.92,1.92 h 42.24 c 1.0602,0 1.92,-0.85978 1.92,-1.92 v -23.04 c 0,-1.0604 -0.85978,-1.92 -1.92,-1.92 h -5.376 c -1.0602,0 -1.92,-0.85962 -1.92,-1.92 v -11.52 c 0,-7.4228 -6.1892,-13.44 -13.824,-13.44 z m 0,4.48 c 5.0898,0 9.216,4.0115 9.216,8.96 v 11.52 c 0,1.0604 -0.85978,1.92 -1.92,1.92 H 22.292 c -1.0604,0 -1.92,-0.85962 -1.92,-1.92 v -11.52 c 0,-4.9485 4.1262,-8.96 9.216,-8.96 z"
     fill="url(#linearGradient45)"
     filter="url(#filter50)"
     stroke-width="3.84"
     id="path4"
     style="display:inline;fill:url(#linearGradient45);fill-opacity:1" />
  <defs
     id="defs15">
    <linearGradient
       id="linearGradient2407"
       x1="13.662"
       x2="3.3315"
       y1="8"
       y2="4.7971"
       gradientTransform="matrix(3.84 0 0 3.84 -1.1323 -1.1928)"
       gradientUnits="userSpaceOnUse">
      <stop
         stop-color="#FE7970"
         offset="0"
         id="stop2403"
         style="stop-color:#fab387;stop-opacity:1;" />
      <stop
         stop-color="#DC3282"
         offset="1"
         id="stop2405"
         style="stop-color:#f38ba8;stop-opacity:1;" />
    </linearGradient>
    <linearGradient
       id="paint0_linear"
       x1="13.662"
       x2="3.3315"
       y1="8"
       y2="4.7971"
       gradientTransform="matrix(3.84 0 0 3.84 -1.1323 -1.1928)"
       gradientUnits="userSpaceOnUse">
      <stop
         stop-color="#FE7970"
         offset="0"
         id="stop6"
         style="stop-color:#fab387;stop-opacity:1;" />
      <stop
         stop-color="#DC3282"
         offset="1"
         id="stop8"
         style="stop-color:#f26994;stop-opacity:1;" />
    </linearGradient>
    <linearGradient
       id="linearGradient45"
       x1="6.1695962"
       x2="10.268471"
       y1="10.910501"
       y2="7.7992425"
       gradientTransform="matrix(3.84 0 0 3.84 -1.1323 -1.1928)"
       gradientUnits="userSpaceOnUse"
       xlink:href="#linearGradient2407" />
    <filter
       id="filter50"
       x="-0.10416667"
       y="-0.089285714"
       width="1.2083333"
       height="1.1785714"
       color-interpolation-filters="sRGB">
      <feGaussianBlur
         result="blur"
         stdDeviation="2 2"
         id="feGaussianBlur12" />
    </filter>
    <linearGradient
       inkscape:collect="always"
       xlink:href="#paint0_linear"
       id="linearGradient395"
       gradientUnits="userSpaceOnUse"
       gradientTransform="matrix(3.84 0 0 3.84 -1.1323 -1.1928)"
       x1="2.0975316"
       y1="14.861854"
       x2="8.3512039"
       y2="9.6456518" />
  </defs>
</svg>
