<?xml version="1.0" encoding="UTF-8" standalone="no"?>
<svg
   width="60"
   height="60"
   fill="none"
   version="1.1"
   viewBox="0 0 60 60"
   id="svg33"
   sodipodi:docname="restart.svg"
   inkscape:version="1.2.1 (9c6d41e410, 2022-07-14, custom)"
   xmlns:inkscape="http://www.inkscape.org/namespaces/inkscape"
   xmlns:sodipodi="http://sodipodi.sourceforge.net/DTD/sodipodi-0.dtd"
   xmlns:xlink="http://www.w3.org/1999/xlink"
   xmlns="http://www.w3.org/2000/svg"
   xmlns:svg="http://www.w3.org/2000/svg">
  <sodipodi:namedview
     id="namedview35"
     pagecolor="#ffffff"
     bordercolor="#000000"
     borderopacity="0.25"
     inkscape:showpageshadow="2"
     inkscape:pageopacity="0.0"
     inkscape:pagecheckerboard="0"
     inkscape:deskcolor="#d1d1d1"
     showgrid="false"
     inkscape:zoom="16.516667"
     inkscape:cx="28.910192"
     inkscape:cy="30.090817"
     inkscape:window-width="3432"
     inkscape:window-height="1370"
     inkscape:window-x="1924"
     inkscape:window-y="66"
     inkscape:window-maximized="1"
     inkscape:current-layer="svg33" />
  <path
     d="m 51.364,39.226 h -9.9502 c -0.32987,0 -0.64622,0.13107 -0.87955,0.36439 -0.23321,0.23321 -0.36427,0.54956 -0.36427,0.87943 0,0.32987 0.13107,0.64622 0.36427,0.87955 0.23332,0.23321 0.54967,0.36427 0.87955,0.36427 h 7.403 c -2.0392,3.0534 -4.7983,5.5583 -8.0341,7.2935 -3.2359,1.7353 -6.849,2.6476 -10.521,2.6567 -3.2409,0.0021 -6.4437,-0.69858 -9.3876,-2.054 -2.9438,-1.3554 -5.5587,-3.3333 -7.6642,-5.797 -2.1055,-2.4637 -3.6516,-5.3548 -4.5317,-8.474 -0.88005,-3.1191 -1.0731,-6.392 -0.56588,-9.593 C 8.15186,25.42693 8.06642,25.1051 7.87391,24.84775 7.6814,24.5904 7.39675,24.41759 7.07963,24.36547 6.76252,24.31335 6.43754,24.38611 6.17282,24.56825 c -0.26473,0.18225 -0.44865,0.45977 -0.51324,0.7746 -0.21089,1.3004 -0.31655,2.6156 -0.31593,3.9328 0.014866,13.731 11.144,24.861 24.876,24.876 3.8612,-0.0014 7.6693,-0.90089 11.123,-2.6273 3.4538,-1.7266 6.4589,-4.2326 8.7774,-7.3204 v 6.219 c 0,0.32988 0.13094,0.64622 0.36427,0.87943 0.23321,0.23332 0.54956,0.36427 0.87943,0.36427 0.32987,0 0.64622,-0.13094 0.87955,-0.36427 0.23321,-0.23321 0.36427,-0.54956 0.36427,-0.87943 v -9.9552 c -6.99e-4,-0.32941 -0.132,-0.64517 -0.36521,-0.87792 -0.23321,-0.23274 -0.54909,-0.36346 -0.87862,-0.36346 z M 42.0033,7.375 C 31.0153,1.4596 17.5853,4.666 10.3193,14.3576 V 8.1312 C 10.3193,7.80132 10.18826,7.48496 9.955,7.25171 9.72174,7.01845 9.40538,6.88741 9.07551,6.88741 c -0.32986,0 -0.64624,0.13104 -0.87948,0.3643 -0.23326,0.23325 -0.3643,0.54962 -0.3643,0.87949 v 9.9503 c 0,0.32988 0.13104,0.64622 0.3643,0.87955 0.23324,0.23321 0.54962,0.36427 0.87948,0.36427 h 9.9503 c 0.32987,0 0.64622,-0.13107 0.87943,-0.36427 0.23333,-0.23333 0.36439,-0.54968 0.36439,-0.87955 0,-0.32987 -0.13107,-0.64622 -0.36439,-0.87943 -0.23321,-0.23333 -0.54956,-0.36439 -0.87943,-0.36439 h -7.403 c 2.0391,-3.0534 4.7983,-5.5582 8.0341,-7.2935 3.2359,-1.7353 6.8489,-2.6476 10.521,-2.6567 3.2411,-0.00199 6.4442,0.69923 9.3882,2.0551 2.9439,1.3559 5.5588,3.3341 7.6641,5.7985 2.1053,2.4643 3.651,5.356 4.5306,8.4755 0.87955,3.1195 1.0719,6.3927 0.56402,9.5939 -0.02612,0.16115 -0.02029,0.32603 0.01726,0.48496 0.03755,0.15893 0.10612,0.30889 0.20161,0.44135 0.09549,0.13246 0.21618,0.24487 0.35506,0.33069 0.13899,0.08582 0.29349,0.14342 0.45464,0.16954 0.16126,0.02624 0.32603,0.02029 0.48496,-0.01726 0.15893,-0.03755 0.30889,-0.10599 0.44135,-0.20149 0.13258,-0.09549 0.24487,-0.21619 0.33069,-0.35518 0.08593,-0.13888 0.14354,-0.29338 0.16966,-0.45464 0.21082,-1.3003 0.31658,-2.6156 0.31588,-3.9328 -0.0034,-4.492 -1.2221,-8.8994 -3.5271,-12.755 -2.3048,-3.8555 -5.61,-7.0157 -9.565,-9.1455 z"
     fill="url(#paint0_linear)"
     stroke="url(#paint0_linear)"
     stroke-width="0.93284"
     id="path2"
     style="display:inline;fill:url(#linearGradient6705);fill-opacity:1;stroke:url(#linearGradient8896)" />
  <path
     d="m 37.682,29.276 c 0,-1.9792 -0.78627,-3.8773 -2.1858,-5.2769 -1.3995,-1.3995 -3.2977,-2.1858 -5.2769,-2.1858 -1.9792,0 -3.8775,0.78626 -5.2769,2.1858 -1.3995,1.3996 -2.1858,3.2977 -2.1858,5.2769 0,1.9792 0.78626,3.8775 2.1858,5.2769 1.3995,1.3995 3.2977,2.1858 5.2769,2.1858 1.9792,0 3.8775,-0.78626 5.2769,-2.1858 1.3995,-1.3995 2.1858,-3.2977 2.1858,-5.2769 z m -12.438,0 c 0,-1.3195 0.52426,-2.5849 1.4572,-3.518 0.93307,-0.93295 2.1985,-1.4572 3.518,-1.4572 1.3195,0 2.5849,0.52426 3.518,1.4572 0.93307,0.93307 1.4572,2.1985 1.4572,3.518 0,1.3195 -0.52414,2.5849 -1.4572,3.518 -0.93307,0.93307 -2.1985,1.4572 -3.518,1.4572 -1.3195,0 -2.5849,-0.52414 -3.518,-1.4572 -0.93295,-0.93307 -1.4572,-2.1985 -1.4572,-3.518 z"
     clip-rule="evenodd"
     fill="url(#paint2_linear)"
     fill-rule="evenodd"
     stroke-width="0.1166"
     id="path4"
     style="display:inline;fill:url(#linearGradient4485);fill-opacity:1" />
  <path
     d="m 35.167,24.329 c 1.3122,1.312 2.0492,3.0915 2.0492,4.9471 h 0.93284 c 0,-2.103 -0.83536,-4.1198 -2.3224,-5.6067 z m -4.9471,-2.0492 c 1.8555,0 3.635,0.73718 4.9471,2.0492 l 0.65963,-0.65963 c -1.4869,-1.4871 -3.5037,-2.3224 -5.6067,-2.3224 z m -4.9471,2.0492 c 1.312,-1.312 3.0915,-2.0492 4.9471,-2.0492 v -0.93284 c -2.103,0 -4.1198,0.83536 -5.6067,2.3224 z m -2.0492,4.9471 c 0,-1.8555 0.73706,-3.635 2.0492,-4.9471 l -0.65963,-0.65963 c -1.4871,1.4869 -2.3224,3.5037 -2.3224,5.6067 z m 2.0492,4.9472 c -1.3122,-1.3122 -2.0492,-3.0917 -2.0492,-4.9472 h -0.93284 c 0,2.103 0.83536,4.1198 2.3224,5.6067 z m 4.9471,2.0491 c -1.8555,0 -3.635,-0.73706 -4.9471,-2.0491 l -0.65963,0.65952 c 1.4869,1.4871 3.5037,2.3224 5.6067,2.3224 z m 4.9471,-2.0491 c -1.312,1.312 -3.0915,2.0491 -4.9471,2.0491 v 0.93284 c 2.103,0 4.1198,-0.83536 5.6067,-2.3224 z m 2.0492,-4.9472 c 0,1.8555 -0.73706,3.635 -2.0492,4.9472 l 0.65963,0.65952 c 1.4871,-1.4869 2.3224,-3.5037 2.3224,-5.6067 z m -10.844,-3.8477 c -1.0205,1.0204 -1.5939,2.4045 -1.5939,3.8477 h 0.93284 c 0,-1.1958 0.47505,-2.3426 1.3207,-3.1881 z m 3.8477,-1.5939 c -1.4432,0 -2.8272,0.57334 -3.8477,1.5939 l 0.65963,0.65963 c 0.8455,-0.84562 1.9923,-1.3207 3.1881,-1.3207 z m 3.8477,1.5939 c -1.0204,-1.0205 -2.4045,-1.5939 -3.8477,-1.5939 v 0.93284 c 1.1958,0 2.3426,0.47505 3.1882,1.3207 z m 1.5939,3.8477 c 0,-1.4432 -0.57335,-2.8273 -1.5939,-3.8477 l -0.65952,0.65963 c 0.8455,0.8455 1.3205,1.9923 1.3205,3.1881 z m -1.5939,3.8477 c 1.0205,-1.0204 1.5939,-2.4045 1.5939,-3.8477 h -0.93284 c 0,1.1958 -0.47505,2.3426 -1.3205,3.1882 z m -3.8477,1.5939 c 1.4432,0 2.8273,-0.57334 3.8477,-1.5939 l -0.65952,-0.65952 c -0.84562,0.8455 -1.9924,1.3205 -3.1882,1.3205 z m -3.8477,-1.5939 c 1.0205,1.0205 2.4045,1.5939 3.8477,1.5939 v -0.93284 c -1.1958,0 -2.3426,-0.47505 -3.1881,-1.3205 z m -1.5939,-3.8477 c 0,1.4432 0.57335,2.8273 1.5939,3.8477 l 0.65963,-0.65952 c -0.84562,-0.84562 -1.3207,-1.9924 -1.3207,-3.1882 z"
     fill="url(#paint2_linear)"
     stroke-width="0.1166"
     id="path6"
     style="display:inline;fill:url(#linearGradient4483);fill-opacity:1" />
  <g
     filter="url(#filter125)"
     id="g14">
    <path
       d="m 51.364,39.226 h -9.9502 c -0.32987,0 -0.64622,0.13107 -0.87955,0.36439 -0.23321,0.23321 -0.36427,0.54956 -0.36427,0.87943 0,0.32987 0.13107,0.64622 0.36427,0.87955 0.23332,0.23321 0.54967,0.36427 0.87955,0.36427 h 7.403 c -2.0392,3.0534 -4.7983,5.5583 -8.0341,7.2935 -3.2359,1.7353 -6.849,2.6476 -10.521,2.6567 -3.2409,0.0021 -6.4437,-0.69858 -9.3876,-2.054 -2.9438,-1.3554 -5.5587,-3.3333 -7.6642,-5.797 -2.1055,-2.4637 -3.6516,-5.3548 -4.5317,-8.474 -0.88005,-3.1191 -1.0731,-6.392 -0.56588,-9.593 C 8.15186,25.42693 8.06642,25.1051 7.87391,24.84775 7.6814,24.5904 7.39675,24.41759 7.07963,24.36547 6.76252,24.31335 6.43754,24.38611 6.17282,24.56825 c -0.26473,0.18225 -0.44865,0.45977 -0.51324,0.7746 -0.21089,1.3004 -0.31655,2.6156 -0.31593,3.9328 0.014866,13.731 11.144,24.861 24.876,24.876 3.8612,-0.0014 7.6693,-0.90089 11.123,-2.6273 3.4538,-1.7266 6.4589,-4.2326 8.7774,-7.3204 v 6.219 c 0,0.32988 0.13094,0.64622 0.36427,0.87943 0.23321,0.23332 0.54956,0.36427 0.87943,0.36427 0.32987,0 0.64622,-0.13094 0.87955,-0.36427 0.23321,-0.23321 0.36427,-0.54956 0.36427,-0.87943 v -9.9552 c -6.99e-4,-0.32941 -0.132,-0.64517 -0.36521,-0.87792 -0.23321,-0.23274 -0.54909,-0.36346 -0.87862,-0.36346 z M 42.0033,7.375 C 31.0153,1.4596 17.5853,4.666 10.3193,14.3576 V 8.1312 C 10.3193,7.80132 10.18826,7.48496 9.955,7.25171 9.72174,7.01845 9.40538,6.88741 9.07551,6.88741 c -0.32986,0 -0.64624,0.13104 -0.87948,0.3643 -0.23326,0.23325 -0.3643,0.54962 -0.3643,0.87949 v 9.9503 c 0,0.32988 0.13104,0.64622 0.3643,0.87955 0.23324,0.23321 0.54962,0.36427 0.87948,0.36427 h 9.9503 c 0.32987,0 0.64622,-0.13107 0.87943,-0.36427 0.23333,-0.23333 0.36439,-0.54968 0.36439,-0.87955 0,-0.32987 -0.13107,-0.64622 -0.36439,-0.87943 -0.23321,-0.23333 -0.54956,-0.36439 -0.87943,-0.36439 h -7.403 c 2.0391,-3.0534 4.7983,-5.5582 8.0341,-7.2935 3.2359,-1.7353 6.8489,-2.6476 10.521,-2.6567 3.2411,-0.00199 6.4442,0.69923 9.3882,2.0551 2.9439,1.3559 5.5588,3.3341 7.6641,5.7985 2.1053,2.4643 3.651,5.356 4.5306,8.4755 0.87955,3.1195 1.0719,6.3927 0.56402,9.5939 -0.02612,0.16115 -0.02029,0.32603 0.01726,0.48496 0.03755,0.15893 0.10612,0.30889 0.20161,0.44135 0.09549,0.13246 0.21618,0.24487 0.35506,0.33069 0.13899,0.08582 0.29349,0.14342 0.45464,0.16954 0.16126,0.02624 0.32603,0.02029 0.48496,-0.01726 0.15893,-0.03755 0.30889,-0.10599 0.44135,-0.20149 0.13258,-0.09549 0.24487,-0.21619 0.33069,-0.35518 0.08593,-0.13888 0.14354,-0.29338 0.16966,-0.45464 0.21082,-1.3003 0.31658,-2.6156 0.31588,-3.9328 -0.0034,-4.492 -1.2221,-8.8994 -3.5271,-12.755 -2.3048,-3.8555 -5.61,-7.0157 -9.565,-9.1455 z"
       fill="url(#linearGradient113)"
       stroke="url(#linearGradient113)"
       stroke-width="0.93284"
       id="path8"
       style="display:none" />
    <path
       d="m 37.682,29.276 c 0,-1.9792 -0.78627,-3.8773 -2.1858,-5.2769 -1.3995,-1.3995 -3.2977,-2.1858 -5.2769,-2.1858 -1.9792,0 -3.8775,0.78626 -5.2769,2.1858 -1.3995,1.3996 -2.1858,3.2977 -2.1858,5.2769 0,1.9792 0.78626,3.8775 2.1858,5.2769 1.3995,1.3995 3.2977,2.1858 5.2769,2.1858 1.9792,0 3.8775,-0.78626 5.2769,-2.1858 1.3995,-1.3995 2.1858,-3.2977 2.1858,-5.2769 z m -12.438,0 c 0,-1.3195 0.52426,-2.5849 1.4572,-3.518 0.93307,-0.93295 2.1985,-1.4572 3.518,-1.4572 1.3195,0 2.5849,0.52426 3.518,1.4572 0.93307,0.93307 1.4572,2.1985 1.4572,3.518 0,1.3195 -0.52414,2.5849 -1.4572,3.518 -0.93307,0.93307 -2.1985,1.4572 -3.518,1.4572 -1.3195,0 -2.5849,-0.52414 -3.518,-1.4572 -0.93295,-0.93307 -1.4572,-2.1985 -1.4572,-3.518 z"
       clip-rule="evenodd"
       fill="url(#linearGradient59)"
       fill-rule="evenodd"
       stroke-width="0.1166"
       id="path10"
       style="display:none" />
    <path
       d="m 35.167,24.329 c 1.3122,1.312 2.0492,3.0915 2.0492,4.9471 h 0.93284 c 0,-2.103 -0.83536,-4.1198 -2.3224,-5.6067 z m -4.9471,-2.0492 c 1.8555,0 3.635,0.73718 4.9471,2.0492 l 0.65963,-0.65963 c -1.4869,-1.4871 -3.5037,-2.3224 -5.6067,-2.3224 z m -4.9471,2.0492 c 1.312,-1.312 3.0915,-2.0492 4.9471,-2.0492 v -0.93284 c -2.103,0 -4.1198,0.83536 -5.6067,2.3224 z m -2.0492,4.9471 c 0,-1.8555 0.73706,-3.635 2.0492,-4.9471 l -0.65963,-0.65963 c -1.4871,1.4869 -2.3224,3.5037 -2.3224,5.6067 z m 2.0492,4.9472 c -1.3122,-1.3122 -2.0492,-3.0917 -2.0492,-4.9472 h -0.93284 c 0,2.103 0.83536,4.1198 2.3224,5.6067 z m 4.9471,2.0491 c -1.8555,0 -3.635,-0.73706 -4.9471,-2.0491 l -0.65963,0.65952 c 1.4869,1.4871 3.5037,2.3224 5.6067,2.3224 z m 4.9471,-2.0491 c -1.312,1.312 -3.0915,2.0491 -4.9471,2.0491 v 0.93284 c 2.103,0 4.1198,-0.83536 5.6067,-2.3224 z m 2.0492,-4.9472 c 0,1.8555 -0.73706,3.635 -2.0492,4.9472 l 0.65963,0.65952 c 1.4871,-1.4869 2.3224,-3.5037 2.3224,-5.6067 z m -10.844,-3.8477 c -1.0205,1.0204 -1.5939,2.4045 -1.5939,3.8477 h 0.93284 c 0,-1.1958 0.47505,-2.3426 1.3207,-3.1881 z m 3.8477,-1.5939 c -1.4432,0 -2.8272,0.57334 -3.8477,1.5939 l 0.65963,0.65963 c 0.8455,-0.84562 1.9923,-1.3207 3.1881,-1.3207 z m 3.8477,1.5939 c -1.0204,-1.0205 -2.4045,-1.5939 -3.8477,-1.5939 v 0.93284 c 1.1958,0 2.3426,0.47505 3.1882,1.3207 z m 1.5939,3.8477 c 0,-1.4432 -0.57335,-2.8273 -1.5939,-3.8477 l -0.65952,0.65963 c 0.8455,0.8455 1.3205,1.9923 1.3205,3.1881 z m -1.5939,3.8477 c 1.0205,-1.0204 1.5939,-2.4045 1.5939,-3.8477 h -0.93284 c 0,1.1958 -0.47505,2.3426 -1.3205,3.1882 z m -3.8477,1.5939 c 1.4432,0 2.8273,-0.57334 3.8477,-1.5939 l -0.65952,-0.65952 c -0.84562,0.8455 -1.9924,1.3205 -3.1882,1.3205 z m -3.8477,-1.5939 c 1.0205,1.0205 2.4045,1.5939 3.8477,1.5939 v -0.93284 c -1.1958,0 -2.3426,-0.47505 -3.1881,-1.3205 z m -1.5939,-3.8477 c 0,1.4432 0.57335,2.8273 1.5939,3.8477 l 0.65963,-0.65952 c -0.84562,-0.84562 -1.3207,-1.9924 -1.3207,-3.1882 z"
       fill="url(#linearGradient59)"
       stroke-width="0.1166"
       id="path12"
       style="display:none" />
  </g>
  <defs
     id="defs31">
    <linearGradient
       id="linearGradient8902"
       x1="256"
       x2="256"
       y1="469.32999"
       y2="42.676998"
       gradientTransform="matrix(0.1166,0,0,0.1166,0.36889,-0.57462)"
       gradientUnits="userSpaceOnUse"
       spreadMethod="pad">
      <stop
         stop-color="#A93AFF"
         offset="0"
         id="stop8898"
         style="stop-color:#a6e3a1;stop-opacity:1;" />
      <stop
         stop-color="#FF81FF"
         offset="1"
         id="stop8900"
         style="stop-color:#f9e2af;stop-opacity:1;" />
    </linearGradient>
    <linearGradient
       id="paint0_linear"
       x1="256"
       x2="256"
       y1="469.32999"
       y2="42.676998"
       gradientTransform="matrix(0.1166,0,0,0.1166,0.36889,-0.57462)"
       gradientUnits="userSpaceOnUse"
       spreadMethod="pad">
      <stop
         stop-color="#A93AFF"
         offset="0"
         id="stop8891" />
      <stop
         stop-color="#FF81FF"
         offset="1"
         id="stop8893" />
    </linearGradient>
    <linearGradient
       id="linearGradient6711"
       x1="256"
       x2="256"
       y1="469.32999"
       y2="42.676998"
       gradientTransform="matrix(0.1166,0,0,0.1166,0.36889,-0.57462)"
       gradientUnits="userSpaceOnUse"
       spreadMethod="pad">
      <stop
         stop-color="#A93AFF"
         offset="0"
         id="stop6707"
         style="stop-color:#a6e3a1;stop-opacity:1;" />
      <stop
         stop-color="#FF81FF"
         offset="1"
         id="stop6709"
         style="stop-color:#f9e2af;stop-opacity:1;" />
    </linearGradient>
    <linearGradient
       id="paint0_linear-2"
       x1="256"
       x2="256"
       y1="469.32999"
       y2="42.676998"
       gradientTransform="matrix(0.1166,0,0,0.1166,0.36889,-0.57462)"
       gradientUnits="userSpaceOnUse"
       spreadMethod="pad">
      <stop
         stop-color="#A93AFF"
         offset="0"
         id="stop6700" />
      <stop
         stop-color="#FF81FF"
         offset="1"
         id="stop6702" />
    </linearGradient>
    <linearGradient
       id="linearGradient5972"
       x1="256"
       x2="256"
       y1="469.33"
       y2="42.677"
       gradientTransform="matrix(.1166 0 0 .1166 .36889 -.57462)"
       gradientUnits="userSpaceOnUse">
      <stop
         stop-color="#A93AFF"
         offset="0"
         id="stop5968" />
      <stop
         stop-color="#FF81FF"
         offset="1"
         id="stop5970"
         style="stop-color:#f9e2af;stop-opacity:1;" />
    </linearGradient>
    <linearGradient
       id="linearGradient5217"
       x1="256"
       x2="256"
       y1="192"
       y2="320"
       gradientTransform="matrix(0.1166,0,0,0.1166,0.36889,-0.57462)"
       gradientUnits="userSpaceOnUse"
       spreadMethod="pad">
      <stop
         stop-color="#DC18FC"
         offset="0"
         id="stop5213"
         style="stop-color:#f9e2af;stop-opacity:1;" />
      <stop
         stop-color="#8E1EFF"
         offset="1"
         id="stop5215"
         style="stop-color:#a6e3a1;stop-opacity:1;" />
    </linearGradient>
    <linearGradient
       id="linearGradient3755"
       x1="256"
       x2="256"
       y1="192"
       y2="320"
       gradientTransform="matrix(0.1166,0,0,0.1166,0.36889,-0.57462)"
       gradientUnits="userSpaceOnUse"
       spreadMethod="pad">
      <stop
         stop-color="#DC18FC"
         offset="0"
         id="stop3751" />
      <stop
         stop-color="#8E1EFF"
         offset="1"
         id="stop3753"
         style="stop-color:#a6e3a1;stop-opacity:1;" />
    </linearGradient>
    <linearGradient
       id="linearGradient2297"
       x1="256"
       x2="256"
       y1="192"
       y2="320"
       gradientTransform="matrix(.1166 0 0 .1166 .36889 -.57462)"
       gradientUnits="userSpaceOnUse">
      <stop
         stop-color="#DC18FC"
         offset="0"
         id="stop2293"
         style="stop-color:#f9e2af;stop-opacity:1;" />
      <stop
         stop-color="#8E1EFF"
         offset="1"
         id="stop2295" />
    </linearGradient>
    <linearGradient
       id="paint0_linear-1"
       x1="256"
       x2="256"
       y1="469.32999"
       y2="42.676998"
       gradientTransform="matrix(0.1166,0,0,0.1166,0.36889,-0.57462)"
       gradientUnits="userSpaceOnUse"
       spreadMethod="pad">
      <stop
         stop-color="#A93AFF"
         offset="0"
         id="stop16" />
      <stop
         stop-color="#FF81FF"
         offset="1"
         id="stop18" />
    </linearGradient>
    <linearGradient
       id="paint2_linear"
       x1="256"
       x2="256"
       y1="192"
       y2="320"
       gradientTransform="matrix(.1166 0 0 .1166 .36889 -.57462)"
       gradientUnits="userSpaceOnUse"
       xlink:href="#linearGradient3755">
      <stop
         stop-color="#DC18FC"
         offset="0"
         id="stop21" />
      <stop
         stop-color="#8E1EFF"
         offset="1"
         id="stop23" />
    </linearGradient>
    <linearGradient
       id="linearGradient59"
       x1="256"
       x2="256"
       y1="192"
       y2="320"
       gradientTransform="matrix(.1166 0 0 .1166 .36889 -.57462)"
       gradientUnits="userSpaceOnUse"
       xlink:href="#paint2_linear" />
    <linearGradient
       id="linearGradient113"
       x1="256"
       x2="256"
       y1="469.33"
       y2="42.677"
       gradientTransform="matrix(.1166 0 0 .1166 .36889 -.57462)"
       gradientUnits="userSpaceOnUse"
       xlink:href="#paint0_linear" />
    <filter
       id="filter125"
       x="-0.1058528"
       y="-0.10583348"
       width="1.2117056"
       height="1.2116899"
       color-interpolation-filters="sRGB">
      <feGaussianBlur
         result="blur"
         stdDeviation="2 2"
         id="feGaussianBlur28" />
    </filter>
    <linearGradient
       inkscape:collect="always"
       xlink:href="#linearGradient5217"
       id="linearGradient4483"
       gradientUnits="userSpaceOnUse"
       gradientTransform="matrix(0.1166,0,0,0.1166,0.36889,-0.57462)"
       x1="256"
       y1="192"
       x2="256"
       y2="320" />
    <linearGradient
       inkscape:collect="always"
       xlink:href="#linearGradient5217"
       id="linearGradient4485"
       gradientUnits="userSpaceOnUse"
       gradientTransform="matrix(0.1166,0,0,0.1166,0.36889,-0.57462)"
       x1="256"
       y1="192"
       x2="256"
       y2="320" />
    <linearGradient
       inkscape:collect="always"
       xlink:href="#linearGradient6711"
       id="linearGradient6705"
       gradientUnits="userSpaceOnUse"
       gradientTransform="matrix(0.1166,0,0,0.1166,0.36889,-0.57462)"
       x1="256"
       y1="469.32999"
       x2="256"
       y2="42.676998" />
    <linearGradient
       inkscape:collect="always"
       xlink:href="#linearGradient8902"
       id="linearGradient8896"
       gradientUnits="userSpaceOnUse"
       gradientTransform="matrix(0.1166,0,0,0.1166,0.36889,-0.57462)"
       x1="256"
       y1="469.32999"
       x2="256"
       y2="42.676998"
       spreadMethod="pad" />
  </defs>
</svg>
